<svg xmlns="http://www.w3.org/2000/svg" width="36.141" height="36.139" viewBox="0 0 36.141 36.139"><defs><style>.a{fill:#fff;stroke:#019de0;}</style></defs><g transform="translate(0.5 0.5)"><path class="a" d="M0,32.055a3.1,3.1,0,0,0,5.287,2.19l9.367-9.367a13.446,13.446,0,1,0-4.38-4.38L.907,29.865A3.076,3.076,0,0,0,0,32.055ZM33.082,13.446A11.376,11.376,0,1,1,21.706,2.07,11.389,11.389,0,0,1,33.082,13.446ZM2.059,32.055a1.031,1.031,0,0,1,.3-.734L11.5,22.179a13.558,13.558,0,0,0,1.468,1.468L3.831,32.789a1.038,1.038,0,0,1-1.772-.734Z" transform="translate(0 -0.011)"/></g></svg>